<svg id="Icon_Outline_image" data-name="Icon/Outline/image" xmlns="http://www.w3.org/2000/svg" xmlns:xlink="http://www.w3.org/1999/xlink" width="15" height="15" viewBox="0 0 15 15">
  <defs>
    <clipPath id="clip-path">
      <path id="vectorMask" d="M12.5,15H2.5A2.5,2.5,0,0,1,0,12.5V2.5A2.5,2.5,0,0,1,2.5,0h10A2.5,2.5,0,0,1,15,2.5v10A2.5,2.5,0,0,1,12.5,15ZM9.2,8.332a.612.612,0,0,0-.391.13L2.967,13.333H12.5a.834.834,0,0,0,.833-.833v-.838l-3.751-3.2A.6.6,0,0,0,9.2,8.332ZM2.5,1.667a.834.834,0,0,0-.833.833v9.749L7.731,7.188a2.313,2.313,0,0,1,2.933.005l2.669,2.277V2.5a.834.834,0,0,0-.833-.833ZM4.17,5.83A1.25,1.25,0,1,1,5.42,4.58,1.251,1.251,0,0,1,4.17,5.83Z" fill="none"/>
    </clipPath>
  </defs>
  <g id="_Color" data-name=" Color">
    <path id="Mask" d="M12.5,15H2.5A2.5,2.5,0,0,1,0,12.5V2.5A2.5,2.5,0,0,1,2.5,0h10A2.5,2.5,0,0,1,15,2.5v10A2.5,2.5,0,0,1,12.5,15ZM9.2,8.332a.612.612,0,0,0-.391.13L2.967,13.333H12.5a.834.834,0,0,0,.833-.833v-.838l-3.751-3.2A.6.6,0,0,0,9.2,8.332ZM2.5,1.667a.834.834,0,0,0-.833.833v9.749L7.731,7.188a2.313,2.313,0,0,1,2.933.005l2.669,2.277V2.5a.834.834,0,0,0-.833-.833ZM4.17,5.83A1.25,1.25,0,1,1,5.42,4.58,1.251,1.251,0,0,1,4.17,5.83Z" fill="#f36"/>
    <g id="_Color-2" data-name=" Color" clip-path="url(#clip-path)">
      <g id="_Color-3" data-name=" Color" transform="translate(-2.5 -2.5)">
        <rect id="Base" width="20" height="20" fill="#f36"/>
      </g>
    </g>
  </g>
</svg>
